#!OML:ASF \\Waltz\H\Terrain\Patient Classification 1\Animal1\Tuesday\Animal1.ASF
:FULLY-SPECIFIED
:DEGREES
1329
root 14.505 12.3497 1.27736 -328.084 45.3843 8.06471
lowerback 44.384 -1.65535 -0.183756
upperback 13.2763 -1.20658 -1.80283
thorax -5.85071 -0.0893956 -1.38062
lowerneck -19.2963 -6.08466 -4.53089
upperneck -14.9213 -5.40159 24.2577
head -0.187957 -2.34695 8.12437
rclavicle 6.91771e-014 5.84427e-014
rhumerus 30.416 -2.07129 -40.262
rradius 83.6839
rwrist -29.3478
rhand -20.1669 7.40325
rfingers 7.12502
rthumb 6.17865 -22.4866
lclavicle 6.91771e-014 5.84427e-014
lhumerus 33.145 -24.1457 49.685
lradius 122.429
lwrist 26.2886
lhand 38.3043 67.557
lfingers 7.12502
lthumb 60.9753 80.271
rfemur -77.2409 3.98217 9.76295
rtibia 116.856
rfoot -5.94869 -17.1822
rtoes 10.3317
lfemur -97.9497 -10.7967 -13.89
ltibia 81.2536
lfoot -19.2414 -22.2793
ltoes -13.3212
1330
root 14.5024 12.3438 1.27661 -327.959 45.2865 8.22206
lowerback 44.3416 -1.62838 -0.310651
upperback 13.4012 -1.20912 -1.75739
thorax -5.69549 -0.0917073 -1.26694
lowerneck -19.5368 -6.12832 -4.63985
upperneck -15.1446 -5.41816 23.934
head -0.234774 -2.34673 8.0379
rclavicle 4.96962e-014 3.75703e-014
rhumerus 29.8614 -1.13727 -38.8687
rradius 83.8388
rwrist -30.2387
rhand -17.5288 7.51563
rfingers 7.12502
rthumb 8.72511 -22.284
lclavicle 4.96962e-014 3.75703e-014
lhumerus 33.087 -22.188 51.0535
lradius 121.499
lwrist 23.0474
lhand 38.0981 62.2344
lfingers 7.12502
lthumb 60.8007 75.1458
rfemur -77.3754 3.984 9.59808
rtibia 116.93
rfoot -6.18941 -17.0077
rtoes 10.3655
lfemur -97.8782 -10.7837 -14.1332
ltibia 81.0615
lfoot -19.1506 -22.3227
ltoes -13.877
1331
root 14.4955 12.3549 1.27584 -328 45.2874 8.11384
lowerback 44.4271 -1.6286 -0.271918
upperback 13.4196 -1.17699 -1.61269
thorax -5.69315 -0.0821073 -1.14528
lowerneck -19.7222 -6.27158 -5.21016
upperneck -15.3278 -5.473 24.0079
head -0.225021 -2.34274 8.16317
rclavicle -3.02153e-014 3.53837e-014
rhumerus 28.9547 1.34524 -37.0161
rradius 86.8838
rwrist -39.4565
rhand -17.8442 6.16348
rfingers 7.12502
rthumb 8.4207 -23.6487
lclavicle -3.02153e-014 3.53837e-014
lhumerus 32.9698 -19.7265 53.0174
lradius 120.158
lwrist 18.2988
lhand 41.3383 62.9876
lfingers 7.12502
lthumb 63.4949 72.4867
rfemur -77.3665 4.06288 9.7088
rtibia 116.841
rfoot -6.2165 -17.0259
rtoes 10.1706
lfemur -97.7694 -10.8526 -13.9556
ltibia 80.778
lfoot -18.9334 -22.2889
ltoes -13.3726
1332
root 14.4791 12.4338 1.26584 -328.017 45.3304 8.11085
lowerback 44.6578 -1.63537 -0.283759
upperback 13.3056 -1.17566 -1.41906
thorax -5.87461 -0.091637 -0.932853
lowerneck -19.5532 -6.37188 -6.093
upperneck -15.5398 -5.38605 24.3918
head -0.261053 -2.27543 8.46673
rclavicle 3.26007e-014 9.43233e-014
rhumerus 28.0305 4.08897 -35.8839
rradius 90.5392
rwrist -49.0544
rhand -15.8461 4.71088
rfingers 7.12502
rthumb 10.3486 -25.0145
lclavicle 3.26007e-014 9.43233e-014
lhumerus 32.7598 -17.2981 55.2666
lradius 118.396
lwrist 12.4247
lhand 38.3723 60.5397
lfingers 7.12502
lthumb 61.0327 73.1882
rfemur -77.052 3.99202 9.718
rtibia 116.29
rfoot -7.1279 -16.6688
rtoes 15.9166
lfemur -97.1753 -10.9662 -13.8456
ltibia 80.1464
lfoot -18.8495 -22.2258
ltoes -12.1086
1333
root 14.4731 12.4475 1.26651 -327.936 45.3449 8.22076
lowerback 44.7562 -1.62899 -0.366754
upperback 13.2303 -1.1937 -1.30432
thorax -5.9795 -0.107538 -0.760727
lowerneck -19.339 -6.34203 -6.44409
upperneck -15.7699 -5.23208 24.4533
head -0.365437 -2.2056 8.57371
rclavicle -1.19271e-015 3.10104e-014
rhumerus 27.4534 6.36039 -34.5094
rradius 93.8967
rwrist -56.8776
rhand -13.06 2.89759
rfingers 7.12502
rthumb 13.0353 -26.6751
lclavicle -1.19271e-015 3.10104e-014
lhumerus 32.7385 -15.1439 57.2836
lradius 116.377
lwrist 6.05814
lhand 33.1271 58.0653
lfingers 7.12502
lthumb 56.4942 75.065
rfemur -77.0848 3.8589 9.69315
rtibia 116.185
rfoot -7.50867 -16.6465
rtoes 19.0299
lfemur -97.06 -10.9902 -13.9543
ltibia 79.9348
lfoot -18.8072 -22.2697
ltoes -11.9843
